<?xml version="1.0" encoding="UTF-8" standalone="no"?>
<!DOCTYPE svg PUBLIC "-//W3C//DTD SVG 1.1//EN" "http://www.w3.org/Graphics/SVG/1.1/DTD/svg11.dtd">
<svg width="100%" height="100%" viewBox="0 0 1024 1024" version="1.1" xmlns="http://www.w3.org/2000/svg" xmlns:xlink="http://www.w3.org/1999/xlink" xml:space="preserve" xmlns:serif="http://www.serif.com/" style="fill-rule:evenodd;clip-rule:evenodd;stroke-linejoin:round;stroke-miterlimit:2;">
    <g transform="matrix(0.791879,0,0,0.791879,46.375,46.375)">
        <path d="M761.578,31.993C796.086,31.188 824.713,58.51 825.518,93.018L763.036,94.476C825.518,93.018 825.518,93.024 825.518,93.031C825.519,93.033 825.519,93.04 825.52,93.045C825.52,93.056 825.519,93.069 825.52,93.084C825.52,93.114 825.521,93.151 825.522,93.197C825.524,93.287 825.527,93.407 825.53,93.558C825.536,93.859 825.545,94.279 825.554,94.813C825.573,95.881 825.596,97.406 825.618,99.344C825.662,103.217 825.699,108.753 825.677,115.603C825.632,129.276 825.35,148.33 824.398,169.953C822.55,211.911 818.013,268.335 806.002,313.677C802.757,325.926 794.311,345.528 787.046,361.937C778.75,380.673 768.465,402.908 758.546,424.017C749.999,442.207 741.62,459.773 734.85,473.884L759.256,512.311C768.444,526.778 776.335,542.704 782.085,559.989L782.634,561.666L782.634,561.667C787.335,576.223 794.093,598.012 800.995,623.244C802.867,621.431 804.655,619.722 806.343,618.125C811.434,613.309 815.718,609.42 818.796,606.679C820.336,605.306 821.581,604.215 822.481,603.434C822.931,603.043 823.295,602.728 823.568,602.494C823.704,602.377 823.817,602.28 823.907,602.203C823.951,602.165 823.99,602.132 824.023,602.104C824.039,602.09 824.055,602.077 824.068,602.066C824.075,602.06 824.083,602.053 824.087,602.05C824.095,602.043 824.103,602.036 863.509,648.412L824.103,602.036C850.408,579.686 889.851,582.89 912.202,609.195C934.548,635.495 931.347,674.927 905.056,697.28L905.057,697.281C905.046,697.29 905.033,697.301 905.018,697.314C904.92,697.398 904.735,697.557 904.469,697.789C903.936,698.252 903.079,699.002 901.945,700.012C899.674,702.036 896.316,705.08 892.239,708.937C884.004,716.726 873.217,727.464 862.622,739.522C851.823,751.814 842.423,764.125 836.042,775.068C828.93,787.266 829.268,791.496 829.268,789.192C829.268,829.649 814.355,864.359 802.084,893.62C798.279,902.695 793.636,911.362 788.242,919.514C797.369,930.376 805.678,940.548 813.625,950.187C831.88,972.33 848.591,992.112 871.252,1014.58C910.608,1053.6 890.103,1122.96 833.15,1131.43L831.799,1131.62C813.162,1134.05 793.163,1128.82 777.614,1115.11C746.289,1087.48 702.699,1030.91 667.804,978.55C651.82,978.491 635.652,978.306 620.553,977.855C596.338,977.131 568.627,975.633 549.101,971.031L549.101,971.03C533.603,967.377 522.037,960.117 515.367,955.423L514.099,954.521C504.735,947.787 485.816,934.002 466.221,918.651C447.676,904.123 424.78,885.317 409.902,869.087C379.362,835.77 331.863,764.64 304.535,706.875C295.47,701.137 285.41,695.092 274.415,688.56C257.923,678.762 239.199,667.793 221.755,656.629C204.37,645.502 186.098,632.838 170.329,618.843C157.14,607.136 142.193,591.475 132.045,571.646C125.16,561.75 120.59,551.502 117.511,543.608C113.071,532.222 109.537,519.875 106.661,507.932C100.899,484.006 96.642,456.875 93.513,432.337C90.35,407.52 88.169,383.963 86.781,366.704C86.084,358.042 85.581,350.888 85.25,345.86C85.084,343.344 84.961,341.355 84.878,339.971C84.836,339.279 84.805,338.737 84.783,338.355C84.772,338.165 84.763,338.014 84.757,337.904C84.754,337.85 84.752,337.805 84.75,337.771C84.749,337.754 84.748,337.74 84.748,337.728C84.747,337.723 84.747,337.716 84.747,337.713C84.746,337.71 84.747,337.707 92.547,337.278L147.153,334.29L84.747,337.701C82.863,303.235 109.276,273.766 143.742,271.882C177.939,270.013 207.215,296.001 209.511,330.072L209.56,330.87C209.56,330.878 209.562,330.897 209.563,330.925C209.566,330.981 209.571,331.078 209.579,331.214C209.595,331.486 209.62,331.915 209.654,332.491C209.723,333.644 209.831,335.385 209.979,337.64C210.277,342.152 210.737,348.7 211.379,356.683C212.34,368.639 213.696,383.642 215.502,399.743C217.918,396.153 220.211,392.649 222.345,389.26C233.166,372.071 235.013,365.463 234.668,367.247C239.904,340.178 238.756,291.669 234.879,243.897C233.043,221.277 230.778,200.755 228.969,185.878C228.066,178.458 227.282,172.488 226.73,168.416C226.454,166.381 226.237,164.823 226.092,163.799C226.02,163.287 225.965,162.909 225.931,162.671C225.914,162.553 225.902,162.469 225.895,162.421C225.892,162.398 225.889,162.383 225.888,162.377L225.888,162.376L225.889,162.38C220.882,128.231 244.504,96.488 278.653,91.477C312.805,86.465 344.554,110.087 349.566,144.239L287.728,153.314C348.456,144.402 349.546,144.248 349.567,144.251C349.567,144.254 349.569,144.26 349.57,144.265C349.571,144.276 349.573,144.29 349.575,144.306C349.579,144.337 349.586,144.378 349.593,144.428C349.608,144.528 349.627,144.665 349.652,144.837C349.702,145.182 349.772,145.671 349.861,146.296C350.037,147.546 350.288,149.343 350.598,151.629C351.217,156.199 352.075,162.737 353.054,170.783C355.007,186.839 357.465,209.081 359.47,233.787C363.274,280.667 366.277,345.061 357.391,390.99C352.817,414.637 338.768,438.955 328.127,455.856C315.935,475.223 301.12,495.568 287.317,513.551C280.878,521.939 274.516,529.995 268.547,537.42C274.564,541.779 281.431,546.412 289.14,551.346C304.353,561.083 320.704,570.665 338.259,581.094C343.037,583.933 347.913,586.841 352.816,589.801C359.73,582.879 366.42,574.529 372.584,564.971C386.136,543.955 392.773,523.902 394.121,514.6C395.374,505.959 393.936,489.337 389.977,469.833C388.208,461.122 386.269,453.387 384.775,447.855C384.035,445.111 383.418,442.966 383.011,441.58C382.807,440.889 382.657,440.39 382.57,440.105C382.527,439.963 382.499,439.874 382.489,439.842C382.484,439.826 382.484,439.823 382.488,439.835C372.196,406.928 390.499,371.893 423.403,361.554C456.333,351.207 491.417,369.515 501.765,402.445L442.682,421.01C501.545,402.514 501.766,402.453 501.769,402.461C501.77,402.464 501.773,402.472 501.774,402.478C501.778,402.491 501.783,402.504 501.787,402.518C501.796,402.547 501.807,402.58 501.818,402.616C501.841,402.688 501.868,402.777 501.9,402.88C501.963,403.086 502.046,403.353 502.145,403.678C502.343,404.327 502.608,405.21 502.929,406.304C503.572,408.49 504.445,411.536 505.453,415.272C507.458,422.698 510.063,433.072 512.478,444.966C516.884,466.672 522.364,501.244 517.828,532.534C515.494,548.634 510.337,566.446 502.906,584.476C511.86,572.305 525.228,563.326 541.225,560.192C575.098,553.556 607.938,575.636 614.574,609.51L554.476,621.284C614.575,609.51 614.576,609.52 614.578,609.53C614.579,609.533 614.581,609.543 614.582,609.55C614.585,609.565 614.588,609.58 614.591,609.597C614.598,609.63 614.606,609.667 614.614,609.708C614.629,609.789 614.647,609.886 614.669,609.998C614.711,610.222 614.765,610.506 614.829,610.848C614.955,611.531 615.121,612.447 615.317,613.576C615.708,615.829 616.222,618.946 616.781,622.758C617.894,630.339 619.223,640.908 620.114,653.073C621.77,675.672 622.505,710.621 613.26,742.451C611.216,749.49 603.999,784.086 584.022,814.554C578.781,822.547 572.754,830.247 565.876,837.491C572.63,842.536 578.649,846.938 583.274,850.289C591.016,851.303 604.644,852.323 624.291,852.91C642.089,853.443 661.908,853.576 681.71,853.574C683.782,851.147 685.519,848.359 686.81,845.28L686.81,845.279C700.2,813.348 704.031,801.256 704.257,790.253L704.268,789.192C704.268,763.78 698.147,727.85 689.172,690.277C680.452,653.767 670.074,619.871 663.683,600.081L663.259,598.804C661.07,592.412 657.911,585.897 653.739,579.327L653.739,579.326L611.324,512.543C611.283,512.484 611.241,512.423 611.197,512.359C610.669,511.591 609.903,510.478 608.933,509.062C606.993,506.23 604.23,502.179 600.898,497.255C594.249,487.428 585.269,474.019 576.033,459.817C566.864,445.718 557.126,430.351 549.102,416.738C542.687,405.854 532.699,388.54 528.44,374.022C516.769,334.24 517.612,286.781 519.78,254.724C520.938,237.606 522.667,222.544 524.106,211.738C524.829,206.312 525.488,201.898 525.978,198.764C526.224,197.195 526.427,195.943 526.578,195.041C526.653,194.589 526.716,194.225 526.763,193.952C526.786,193.815 526.806,193.7 526.821,193.61C526.829,193.564 526.836,193.525 526.842,193.491C526.845,193.475 526.847,193.459 526.85,193.445C526.851,193.439 526.853,193.429 526.853,193.426C526.855,193.417 526.857,193.408 588.412,204.231L526.856,193.408C532.833,159.412 565.238,136.697 599.235,142.674C633.226,148.651 655.938,181.047 649.97,215.038C649.969,215.045 649.968,215.052 649.967,215.06C649.951,215.15 649.922,215.327 649.879,215.586C649.792,216.105 649.653,216.953 649.474,218.098C649.115,220.392 648.596,223.858 648.012,228.244C646.837,237.064 645.429,249.358 644.495,263.16C642.508,292.536 643.302,320.8 648.181,338.121C647.756,336.563 649.04,339.892 655.033,350.256C661.444,336.436 667.566,323.034 672.748,311.329C676.628,302.566 679.835,295.088 682.195,289.268C684.943,282.492 685.451,280.601 685.169,281.668C693.552,250.02 697.741,204.845 699.519,164.453C700.38,144.901 700.636,127.591 700.677,115.195C700.697,109.01 700.664,104.084 700.626,100.755C700.607,99.092 700.587,97.83 700.573,97.011C700.566,96.602 700.56,96.304 700.557,96.123C700.555,96.032 700.553,95.971 700.553,95.939L700.553,95.934L700.539,95.127C700.174,60.98 727.339,32.792 761.578,31.993ZM822.933,1063.72L826.148,1060.07L822.886,1063.36L822.933,1063.72ZM822.933,1063.72L822.886,1063.36L826.148,1060.07L822.933,1063.72ZM491.895,633.483C491.896,633.491 491.898,633.499 491.9,633.507C490.139,624.494 490.412,615.554 492.398,607.163C487.934,615.832 482.993,624.406 477.635,632.715C466.265,650.346 451.776,668.715 434.017,685.095C446.864,707.903 461.961,731.491 475.718,750.922C477.283,749.208 478.488,747.54 479.488,746.015C486.269,735.673 487.711,726.561 493.221,707.588C496.085,697.729 496.821,680.931 495.449,662.205C494.826,653.708 493.885,646.221 493.106,640.91C492.719,638.278 492.382,636.241 492.158,634.951C492.047,634.308 491.964,633.855 491.919,633.613L491.895,633.483ZM905.088,697.254C905.083,697.258 905.077,697.264 905.07,697.27C905.066,697.273 905.059,697.279 905.057,697.281C905.081,697.26 905.094,697.248 905.098,697.245C905.096,697.247 905.093,697.25 905.088,697.254ZM649.976,215.005C649.975,215.01 649.975,215.017 649.973,215.024C649.973,215.028 649.971,215.036 649.97,215.038L649.976,215.005ZM491.886,633.434C491.888,633.445 491.89,633.46 491.894,633.478C491.894,633.48 491.894,633.481 491.895,633.483L491.886,633.434Z" style="fill:url(#_Linear1);fill-rule:nonzero;"/>
    </g>
    <defs>
        <linearGradient id="_Linear1" x1="0" y1="0" x2="1" y2="0" gradientUnits="userSpaceOnUse" gradientTransform="matrix(-203.821,-819.755,819.755,-203.821,781.952,1171.09)"><stop offset="0" style="stop-color:rgb(129,23,153);stop-opacity:1"/><stop offset="1" style="stop-color:rgb(255,38,107);stop-opacity:1"/></linearGradient>
    </defs>
</svg>
