<?xml version="1.0" encoding="UTF-8" standalone="no"?>
<!DOCTYPE svg PUBLIC "-//W3C//DTD SVG 1.1//EN" "http://www.w3.org/Graphics/SVG/1.1/DTD/svg11.dtd">
<svg width="100%" height="100%" viewBox="0 0 1024 1024" version="1.1" xmlns="http://www.w3.org/2000/svg" xmlns:xlink="http://www.w3.org/1999/xlink" xml:space="preserve" xmlns:serif="http://www.serif.com/" style="fill-rule:evenodd;clip-rule:evenodd;stroke-linejoin:round;stroke-miterlimit:2;">
    <g transform="matrix(0.791879,0,0,0.791879,46.375,46.375)">
        <path d="M125,683.71C125,719.696 142.117,741.414 243.332,770.884C250.298,772.912 291.794,812.813 324.864,803.817C352.34,796.342 336.042,760.019 351,758C360.179,756.761 391.456,748.71 401.448,746.649C426.696,741.44 428.304,790.047 474.128,773.474C527.638,754.122 484.249,738.678 499.461,738.585C513.689,738.497 525.853,739.766 534.892,742.897C599.137,765.152 652.994,751.894 653,695.074C653.005,645.835 604.56,647.194 566.544,656.72C528.751,666.19 518.83,660.362 518.83,648.67C518.83,636.833 499.648,606.949 471.5,603.346C454.73,601.2 435.974,610.808 426.713,610.346C411.123,609.569 399.231,608.102 377.5,606.346C377.5,606.346 386.09,571.305 358.5,567.499C323.401,562.659 262.777,594.484 252.5,599.292C219.424,614.767 182.535,637.117 157.5,651.999C139,662.997 125,673.5 125,683.71Z" style="fill:url(#_Radial1);fill-rule:nonzero;"/>
    </g>
    <defs>
        <radialGradient id="_Radial1" cx="0" cy="0" r="1" gradientUnits="userSpaceOnUse" gradientTransform="matrix(-7.50004,153.432,-340.194,-16.6293,389,686.068)"><stop offset="0" style="stop-color:rgb(255,111,1);stop-opacity:1"/><stop offset="1" style="stop-color:rgb(248,178,93);stop-opacity:1"/></radialGradient>
    </defs>
</svg>
