<?xml version="1.0" encoding="UTF-8" standalone="no"?>
<!DOCTYPE svg PUBLIC "-//W3C//DTD SVG 1.1//EN" "http://www.w3.org/Graphics/SVG/1.1/DTD/svg11.dtd">
<svg width="100%" height="100%" viewBox="0 0 1024 1024" version="1.1" xmlns="http://www.w3.org/2000/svg" xmlns:xlink="http://www.w3.org/1999/xlink" xml:space="preserve" xmlns:serif="http://www.serif.com/" style="fill-rule:evenodd;clip-rule:evenodd;stroke-linejoin:round;stroke-miterlimit:2;">
    <g transform="matrix(0.791879,0,0,0.791879,47.375,46.375)">
        <path d="M700.647,95.087C701.321,60.582 729.837,33.152 764.344,33.819C798.855,34.487 826.291,63.006 825.624,97.517L763.135,96.308C824.531,97.496 825.604,97.522 825.623,97.528L825.623,97.541C825.623,97.551 825.622,97.563 825.622,97.576C825.622,97.604 825.621,97.64 825.62,97.684C825.618,97.771 825.616,97.89 825.613,98.039C825.606,98.339 825.596,98.762 825.583,99.303C825.557,100.385 825.517,101.938 825.459,103.918C825.344,107.877 825.156,113.551 824.867,120.572C824.289,134.591 823.819,153.759 822.163,175.817C818.939,218.751 812.386,275.992 800.62,320.408C800.996,318.987 799.869,325.797 798.975,345.457C798.22,362.07 797.793,382.402 797.572,402.471C797.352,422.439 797.339,441.684 797.381,455.969C797.402,463.101 797.438,468.972 797.468,473.048C797.482,475.085 797.495,476.673 797.505,477.744C797.51,478.279 797.514,478.685 797.516,478.954C797.518,479.088 797.519,479.187 797.52,479.252L797.52,479.338L797.563,483.402L789.408,551.446C787.409,568.123 789.326,586.138 795.071,604.452C796.96,610.472 799.018,617.196 801.171,624.486C801.973,623.66 802.649,622.97 803.187,622.427C803.566,622.043 803.877,621.732 804.114,621.495C804.232,621.377 804.332,621.278 804.413,621.198C804.453,621.158 804.489,621.122 804.52,621.092C804.535,621.077 804.549,621.062 804.562,621.05C804.569,621.043 804.578,621.034 804.581,621.031C804.59,621.024 804.802,621.223 846.685,663.661L804.597,621.014L804.699,620.915L804.8,620.815L848.499,665.5C805.572,621.604 804.813,620.829 804.8,620.815C804.801,620.814 804.802,620.813 804.803,620.812C804.806,620.81 804.81,620.806 804.815,620.801C804.825,620.791 804.84,620.777 804.86,620.758C804.9,620.719 804.96,620.659 805.04,620.58C805.201,620.423 805.441,620.189 805.754,619.882C806.382,619.268 807.306,618.363 808.487,617.206C810.85,614.893 814.241,611.571 818.347,607.543C826.562,599.483 837.624,588.613 849.034,577.352C860.461,566.074 872.161,554.479 881.677,544.945C886.442,540.17 890.568,536.004 893.799,532.697C895.415,531.043 896.733,529.679 897.754,528.607C898.261,528.075 898.656,527.655 898.95,527.338C899.259,527.007 899.375,526.877 899.35,526.905C909.042,516.036 918.979,493.714 926.59,466.921C930.044,454.764 932.478,443.67 934.039,435.638C934.814,431.653 935.357,428.502 935.694,426.445C935.862,425.419 935.977,424.672 936.043,424.237C936.075,424.019 936.096,423.88 936.104,423.824L936.102,423.84C936.101,423.848 936.099,423.859 936.097,423.87C936.097,423.876 936.095,423.886 936.094,423.889C940.849,389.709 972.407,365.849 1006.59,370.592C1040.78,375.337 1064.65,406.9 1059.91,441.09L997.999,432.499C1059.58,441.045 1059.9,441.101 1059.9,441.112L1059.9,441.137C1059.9,441.154 1059.89,441.173 1059.89,441.193C1059.89,441.232 1059.88,441.278 1059.87,441.329C1059.86,441.432 1059.84,441.558 1059.82,441.705C1059.78,441.999 1059.72,442.383 1059.65,442.85C1059.51,443.784 1059.31,445.056 1059.05,446.632C1058.54,449.779 1057.78,454.158 1056.74,459.486C1054.68,470.079 1051.48,484.735 1046.83,501.078C1038.25,531.284 1022.19,576.963 992.648,610.094C985.178,618.472 956.99,642.549 935.104,664.15C923.576,675.526 912.419,686.488 904.15,694.601C900.014,698.659 896.596,702.008 894.21,704.344C893.017,705.512 892.083,706.428 891.445,707.052C891.126,707.364 890.881,707.603 890.715,707.765C890.708,707.772 890.7,707.779 890.693,707.786C890.631,707.849 890.504,707.975 890.317,708.164C889.929,708.557 889.284,709.215 888.417,710.115C886.681,711.918 884.08,714.668 880.908,718.18C874.498,725.276 864.122,733.599 855.846,744.748C847.433,756.083 839.598,765.191 834.548,775.632C832.064,780.769 828.393,785.885 828.031,789.292C827.725,792.172 826.945,811.547 826.937,811.594C820.983,844.159 817.038,850.367 809.826,872.615L807.99,876.668C799.47,895.348 797.785,902.334 786.959,919.674C795.479,929.465 805.975,942.164 814.542,953.013C834.995,978.915 853.058,995.476 880.237,1027.55C899.45,1056.63 890.85,1097.2 865.815,1116.89C841.528,1135.99 797.093,1136.1 773.213,1112.75C730.67,1071.85 706.148,1031.14 664.919,979.282C653.717,979.449 625.504,979.159 616.419,979.015C596.48,978.698 574.043,977.205 551.163,971.028C542.087,968.578 534.366,965.203 528.131,962.001C527.348,961.598 526.491,961.157 525.565,960.679C500.405,947.684 476.077,927.441 461.749,904.881C444.422,877.603 438.146,858.09 439.92,838.514C443.345,800.723 462.89,783.56 474.67,757.392C477.492,751.123 480.304,743.32 483.161,733.482C485.895,724.068 496.187,700.225 494.655,673.154C493.974,661.118 492.945,650.152 492.081,642.183C491.652,638.222 491.269,635.058 491.002,632.942C490.869,631.885 490.765,631.093 490.699,630.597C490.666,630.35 490.642,630.176 490.629,630.081C490.626,630.063 490.624,630.048 490.622,630.035L490.515,629.234C486.191,595.361 509.901,564.211 543.816,559.445C577.997,554.64 609.602,578.456 614.406,612.638L552.514,621.336C614.406,612.637 614.406,612.645 614.407,612.651C614.408,612.654 614.41,612.661 614.41,612.666C614.412,612.677 614.413,612.689 614.415,612.703C614.419,612.73 614.423,612.763 614.429,612.801C614.439,612.876 614.452,612.972 614.468,613.089C614.5,613.322 614.544,613.638 614.596,614.031C614.701,614.818 614.846,615.918 615.02,617.298C615.368,620.055 615.837,623.948 616.354,628.715C617.382,638.202 618.623,651.379 619.455,666.092C620.951,692.519 615.398,731.728 606.023,764.005C602.057,777.663 600.461,779.506 594.576,792.579C583.14,817.984 574.28,826.757 564.782,837.084C563.987,837.948 582.265,849.806 582.242,850.667C591.465,851.315 605.649,852.694 619.52,852.915C636.02,853.177 654.236,853.731 674.676,853.595L680.248,853.841C685.857,846.049 689.18,838.204 693.612,825.383C700.077,806.682 702.255,801.432 702.495,797.239C705.03,752.915 687.908,688.293 675.802,641.868C667.117,608.562 660.915,573.127 665.297,536.571L672.491,476.538C672.485,475.775 672.478,474.912 672.471,473.957C672.44,469.727 672.403,463.676 672.381,456.341C672.338,441.694 672.351,421.83 672.58,401.093C672.807,380.456 673.253,358.487 674.103,339.78C674.815,324.12 676.026,302.594 679.787,288.399C688.416,255.825 693.85,208.671 696.993,166.805C698.52,146.463 699.439,128.39 699.973,115.42C700.24,108.948 700.411,103.776 700.514,100.265C700.565,98.51 700.598,97.172 700.619,96.296C700.63,95.858 700.637,95.535 700.642,95.334L700.647,95.087ZM869.012,1018.78L869.115,1018.88C869.056,1018.82 868.997,1018.76 868.938,1018.71L869.012,1018.78ZM890.7,707.78C890.705,707.774 890.71,707.77 890.714,707.766C890.726,707.754 890.734,707.746 890.737,707.743C890.733,707.747 890.721,707.759 890.7,707.78Z" style="fill:url(#_Linear1);fill-rule:nonzero;"/>
    </g>
    <defs>
        <linearGradient id="_Linear1" x1="0" y1="0" x2="1" y2="0" gradientUnits="userSpaceOnUse" gradientTransform="matrix(-203.821,-819.765,819.765,-203.821,755.387,1171.1)"><stop offset="0" style="stop-color:rgb(129,23,153);stop-opacity:1"/><stop offset="1" style="stop-color:rgb(255,38,107);stop-opacity:1"/></linearGradient>
    </defs>
</svg>
